<?xml version="1.0" encoding="utf-8"?>
<!-- Generator: Adobe Illustrator 27.5.0, SVG Export Plug-In . SVG Version: 6.00 Build 0)  -->
<svg version="1.1" id="Layer_4" xmlns="http://www.w3.org/2000/svg" xmlns:xlink="http://www.w3.org/1999/xlink" x="0px" y="0px"
	 viewBox="0 0 1332 872.956" style="enable-background:new 0 0 1332 872.956;" xml:space="preserve">
<g>
	<defs>
		<rect id="SVGID_1_" x="25.85" y="25.446" width="1279.65" height="831.881"/>
	</defs>
	<clipPath id="SVGID_00000124149673282268687630000009016329806129903290_">
		<use xlink:href="#SVGID_1_"  style="overflow:visible;"/>
	</clipPath>
	
		<rect x="25.85" y="1.496" style="clip-path:url(#SVGID_00000124149673282268687630000009016329806129903290_);fill:#DCFDFF;" width="1280" height="868.253"/>
	<path style="opacity:0.36;clip-path:url(#SVGID_00000124149673282268687630000009016329806129903290_);fill:#FCFCFC;" d="
		M1268.08,61.256H25.85v-35.81C238.41,31.416,1268.08,61.256,1268.08,61.256z"/>
	<polygon style="opacity:0.36;clip-path:url(#SVGID_00000124149673282268687630000009016329806129903290_);fill:#FCFCFC;" points="
		1171.87,121.266 25.85,121.266 25.85,85.056 	"/>
	<polygon style="opacity:0.36;clip-path:url(#SVGID_00000124149673282268687630000009016329806129903290_);fill:#FCFCFC;" points="
		1134.95,160.266 25.85,196.206 25.85,145.766 	"/>
	<polygon style="opacity:0.36;clip-path:url(#SVGID_00000124149673282268687630000009016329806129903290_);fill:#FCFCFC;" points="
		1305.85,174.126 1305.85,198.416 232.38,198.416 	"/>
	<polygon style="opacity:0.36;clip-path:url(#SVGID_00000124149673282268687630000009016329806129903290_);fill:#FCFCFC;" points="
		1305.85,238.006 1305.85,265.106 512.37,223.276 	"/>
	<polygon style="opacity:0.36;clip-path:url(#SVGID_00000124149673282268687630000009016329806129903290_);fill:#FCFCFC;" points="
		1305.85,278.506 1305.85,320.286 510.81,278.506 	"/>
	<path style="opacity:0.32;clip-path:url(#SVGID_00000124149673282268687630000009016329806129903290_);fill:#FFFFFF;" d="
		M1305.85,401.486v479.8h-1280v-479.76c83.69-63.98,222.17-134.43,430.23-141.38c383.98-12.83,490.58,235.62,725.27,172.8
		C1232.53,419.246,1273.33,409.046,1305.85,401.486z"/>
	<path style="clip-path:url(#SVGID_00000124149673282268687630000009016329806129903290_);fill:#F0EEFF;" d="M25.854,397.289
		l100.94-49.127l332.04,181.141l270.183,17.227L887.876,404.79l56.628,27.429c25.313,12.261,54.327,14.49,81.217,6.239
		l109.725-33.668l170.409,178.518v305.995h-1280V397.289z"/>
	<polygon style="clip-path:url(#SVGID_00000124149673282268687630000009016329806129903290_);fill:#F6F5FC;" points="
		25.854,349.285 212.809,442.294 470.834,325.282 929.881,484.298 1064.802,450.921 1169.904,382.288 1305.854,307.28 
		1305.854,391.289 1305.854,889.303 25.854,889.303 	"/>
	<polygon style="clip-path:url(#SVGID_00000124149673282268687630000009016329806129903290_);fill:#FCE9D0;" points="25.85,351.676 
		155.8,478.296 212.81,442.296 	"/>
	<polygon style="clip-path:url(#SVGID_00000124149673282268687630000009016329806129903290_);fill:#FCE9D0;" points="
		470.834,325.282 608.849,421.292 624.981,397.289 929.881,484.298 	"/>
	<polygon style="clip-path:url(#SVGID_00000124149673282268687630000009016329806129903290_);fill:#FFFFFF;" points="530,505.3 
		470.834,325.282 608.849,421.292 624.981,397.289 929.881,484.298 683.856,448.295 624.981,484.298 557.843,457.296 	"/>
	<polygon style="opacity:0.49;clip-path:url(#SVGID_00000124149673282268687630000009016329806129903290_);fill:#EAD4C1;" points="
		25.854,541.304 56.793,436.293 104.798,484.298 104.798,505.3 159.862,524.453 455.833,348.162 470.834,404.79 470.834,454.295 
		530,559.306 563.844,505.3 608.849,529.303 656.475,510.503 600,444.779 669.654,505.3 691.712,496.593 560,404.79 
		713.245,488.093 722.859,484.298 980.886,529.303 1036.133,515.096 1009.5,551.231 1041.978,513.594 1051.347,511.184 
		1005.5,565.416 1057.5,511.916 1064.806,509.46 1045.5,546.231 1070.5,508.416 1190.906,475.297 1305.854,370.287 
		1305.854,889.303 25.854,889.303 25.854,618.731 	"/>
	<path style="clip-path:url(#SVGID_00000124149673282268687630000009016329806129903290_);fill:#EAD4C1;" d="M356.823,451.295
		c2.445,0,11.973-3.431,24.557-8.43c0.96-0.381,19.62-49.783,19.62-49.783l-16.334,49.333l5.6-2.607l7.608-21.143l-6,21.25
		l3.655-1.818l5.22-17.557l-4.5,17.5l74.584-33.251v16.688v32.817l13.523,24.001l15.215,27.004l15.545,27.592l-56.035-54.596
		l-9-38.818H435.97v-13.5l-51.883,31.499L336.089,505.3l-53.997,15.173l-133.494,28.499L337.041,424.46l17.047,18.017
		L356.823,451.295z"/>
	<g style="clip-path:url(#SVGID_00000124149673282268687630000009016329806129903290_);">
		<g>
			<polygon style="fill:#067C4F;" points="466.529,653.664 462.223,653.664 466.529,614.482 470.834,653.664 			"/>
			<polygon style="fill:#067C4F;" points="445.168,642.118 440.862,642.118 445.168,602.938 449.474,642.118 			"/>
			<polygon style="fill:#067C4F;" points="478.585,647.421 474.279,647.421 478.585,600.044 482.891,647.421 			"/>
			<polygon style="fill:#067C4F;" points="495.808,662.914 491.502,662.914 495.808,623.732 500.113,662.914 			"/>
			<polygon style="fill:#067C4F;" points="487.196,654.414 482.891,654.414 487.196,615.232 491.502,654.414 			"/>
			<polygon style="fill:#067C4F;" points="515.118,655.323 510.811,655.323 515.118,601.551 519.423,655.323 			"/>
			<polygon style="fill:#067C4F;" points="528.247,666.109 523.941,666.109 528.247,626.929 532.553,666.109 			"/>
		</g>
		<g>
			<polygon style="fill:#55682B;" points="905.352,665.209 900.615,665.209 905.352,626.027 910.088,665.209 			"/>
			<polygon style="fill:#55682B;" points="895.879,665.209 891.143,665.209 895.879,617.527 900.615,665.209 			"/>
			<polygon style="fill:#55682B;" points="914.824,661.709 910.088,661.709 914.824,606.438 919.56,661.709 			"/>
			<polygon style="fill:#55682B;" points="929.033,670.209 924.297,670.209 929.033,631.027 933.769,670.209 			"/>
			<polygon style="fill:#55682B;" points="919.56,661.709 914.824,661.709 919.56,622.527 924.297,661.709 			"/>
			<polygon style="fill:#55682B;" points="938.505,665.209 933.769,665.209 938.505,611.438 943.241,665.209 			"/>
			<polygon style="fill:#55682B;" points="938.505,667.618 933.769,667.618 938.505,628.438 943.241,667.618 			"/>
		</g>
		<g>
			<polygon style="fill:#486E87;" points="1272.818,498.551 1268.082,498.551 1272.818,459.369 1277.555,498.551 			"/>
			<polygon style="fill:#486E87;" points="1263.346,498.551 1258.61,498.551 1263.346,450.869 1268.082,498.551 			"/>
			<polygon style="fill:#486E87;" points="1282.291,495.051 1277.555,495.051 1282.291,439.779 1287.027,495.051 			"/>
			<polygon style="fill:#486E87;" points="1296.5,503.551 1291.764,503.551 1296.5,464.369 1301.236,503.551 			"/>
			<polygon style="fill:#486E87;" points="1287.027,495.051 1282.291,495.051 1287.027,455.869 1291.764,495.051 			"/>
			<polygon style="fill:#486E87;" points="1305.973,498.551 1301.236,498.551 1305.973,444.779 1310.709,498.551 			"/>
			<polygon style="fill:#486E87;" points="1305.973,500.96 1301.236,500.96 1305.973,461.779 1310.709,500.96 			"/>
		</g>
		<g>
			<polygon style="fill:#486E87;" points="1230.192,511.184 1225.456,511.184 1230.192,472.003 1234.929,511.184 			"/>
			<polygon style="fill:#486E87;" points="1220.72,511.184 1215.983,511.184 1220.72,463.503 1225.456,511.184 			"/>
			<polygon style="fill:#486E87;" points="1239.665,507.684 1234.929,507.684 1239.665,452.412 1244.401,507.684 			"/>
			<polygon style="fill:#486E87;" points="1253.873,516.184 1249.138,516.184 1253.873,477.003 1258.61,516.184 			"/>
			<polygon style="fill:#486E87;" points="1244.401,507.684 1239.665,507.684 1244.401,468.503 1249.138,507.684 			"/>
			<polygon style="fill:#486E87;" points="1263.346,511.184 1258.61,511.184 1263.346,457.412 1268.082,511.184 			"/>
			<polygon style="fill:#486E87;" points="1263.346,513.594 1258.61,513.594 1263.346,474.412 1268.082,513.594 			"/>
		</g>
		<g>
			<polygon style="fill:#8B86D1;" points="84.73,545.027 79.994,545.027 84.73,505.846 89.467,545.027 			"/>
			<polygon style="fill:#8B86D1;" points="75.258,541.881 70.521,541.881 75.258,497.346 80.172,543.555 			"/>
			<polygon style="fill:#8B86D1;" points="94.203,548.972 89.467,548.972 94.203,486.256 98.939,548.972 			"/>
			<polygon style="fill:#8B86D1;" points="108.412,550.027 103.675,550.027 108.412,510.846 113.148,550.027 			"/>
			<polygon style="fill:#8B86D1;" points="98.939,548.972 94.203,548.972 98.939,502.346 103.675,548.972 			"/>
			<polygon style="fill:#8B86D1;" points="117.884,552.583 113.148,552.583 117.884,491.256 122.621,552.583 			"/>
			<polygon style="fill:#8B86D1;" points="117.884,551.231 113.148,551.231 117.884,508.255 122.621,551.231 			"/>
		</g>
		<g>
			<polygon style="fill:#8B86D1;" points="30.263,543.96 25.527,543.96 30.263,497.293 34.999,543.96 			"/>
			<polygon style="fill:#8B86D1;" points="20.791,533.836 16.055,533.836 20.791,487.169 25.527,533.836 			"/>
			<polygon style="fill:#8B86D1;" points="39.736,537.346 34.999,537.346 39.736,473.96 44.472,537.346 			"/>
			<polygon style="fill:#8B86D1;" points="53.945,549.915 49.208,549.915 53.945,503.248 58.681,549.915 			"/>
			<polygon style="fill:#8B86D1;" points="44.472,539.791 39.736,539.791 44.472,493.125 49.208,539.791 			"/>
			<polygon style="fill:#8B86D1;" points="63.417,543.96 58.681,543.96 63.417,479.915 68.153,543.96 			"/>
			<polygon style="fill:#8B86D1;" points="63.417,546.829 58.681,546.829 63.417,500.163 68.153,546.829 			"/>
		</g>
		<polygon style="fill:#067C4F;" points="148.599,562.322 143.862,562.322 148.599,537.731 153.335,562.322 		"/>
		<polygon style="fill:#067C4F;" points="164.599,563.527 159.862,563.527 164.599,538.937 169.335,563.527 		"/>
		<polygon style="fill:#067C4F;" points="139.126,558.527 134.39,558.527 139.126,533.937 143.862,558.527 		"/>
		<g>
			<polygon style="fill:#55682B;" points="1152.929,546.231 1148.192,546.231 1152.929,507.051 1157.665,546.231 			"/>
			<polygon style="fill:#55682B;" points="1143.456,546.231 1138.72,546.231 1143.456,498.551 1148.192,546.231 			"/>
			<polygon style="fill:#55682B;" points="1162.401,542.731 1157.665,542.731 1162.401,487.46 1167.138,542.731 			"/>
			<polygon style="fill:#55682B;" points="1176.61,551.231 1171.874,551.231 1176.61,512.051 1181.346,551.231 			"/>
			<polygon style="fill:#55682B;" points="1167.138,542.731 1162.401,542.731 1167.138,503.551 1171.874,542.731 			"/>
			<polygon style="fill:#55682B;" points="1186.082,546.232 1181.346,546.232 1186.082,492.46 1190.818,546.232 			"/>
			<polygon style="fill:#55682B;" points="1186.082,548.642 1181.346,548.642 1186.082,509.46 1190.818,548.642 			"/>
		</g>
		<g>
			<polygon style="fill:#067C4F;" points="32.632,546.231 27.895,546.231 32.632,507.051 37.368,546.231 			"/>
			<polygon style="fill:#067C4F;" points="23.159,537.731 18.423,537.731 23.159,498.551 27.895,537.731 			"/>
			<polygon style="fill:#067C4F;" points="42.333,537.083 37.195,536.568 42.104,487.46 47.081,537.244 			"/>
			<polygon style="fill:#067C4F;" points="56.313,551.231 51.577,551.231 56.313,512.051 61.049,551.231 			"/>
			<polygon style="fill:#067C4F;" points="46.84,542.731 42.104,542.731 46.84,503.551 51.577,542.731 			"/>
			<polygon style="fill:#067C4F;" points="65.785,546.232 61.049,546.232 65.785,492.46 70.521,546.232 			"/>
			<polygon style="fill:#067C4F;" points="65.785,548.642 61.049,548.642 65.785,509.46 70.521,548.642 			"/>
		</g>
	</g>
	<path style="opacity:0.18;clip-path:url(#SVGID_00000124149673282268687630000009016329806129903290_);fill:#6F8479;" d="
		M1305.85,474.086v415.22h-1280V551.947c88.85-2.096,276.46-5.503,344.15,1.244c90,8.967,428.8,119.902,747.4-21.866
		C1193.2,497.601,1255.27,480.52,1305.85,474.086z"/>
	<path style="clip-path:url(#SVGID_00000124149673282268687630000009016329806129903290_);fill:#AEDB58;" d="M1305.973,474.041
		l0.86,415.265H25.85v-355.29c65.75,9.62,213.71,34.95,354.98,84.721c189.01,66.58,483.04,57.58,549.05,36.58
		C985.33,637.676,1125.603,541.641,1305.973,474.041z"/>
	<path style="clip-path:url(#SVGID_00000124149673282268687630000009016329806129903290_);fill:#6D9E18;" d="M1305.85,529.306v360
		h-1280v-345.25c98.7,30.891,225.72,73.15,270.97,99.261L265,611.438c0,0,238.84,94.879,283.84,100.879
		c45.01,6.01,177.021,3.01,246.03,0c69-3,186.13-80.28,186.13-80.28s197.91-102.73,287.91-102.73H1305.85z"/>
	<path style="clip-path:url(#SVGID_00000124149673282268687630000009016329806129903290_);fill:#598712;" d="M1305.973,519.354
		l-0.118,369.951h-1280v-345.25l144.95,90.261l129.02,74.989l171.01,24.021h387.04l82.048-40.578l78.078,1.668l-70.462-5.435
		l5.321-2.631L1054,691.416l-94.318-8.44l11.303-5.59h68.516l-62.904-2.775l154.309-76.314c0,0,60.01-35.99,105.01-32.99
		l-26.859,32.83C1211.784,595.026,1255.493,545.854,1305.973,519.354z"/>
	<path style="clip-path:url(#SVGID_00000124149673282268687630000009016329806129903290_);fill:#BCE870;" d="M1305.85,884.796v4.51
		h-1280V643.106c68.78,6.42,173.62,15.949,306.01,27.21c140.07,11.909,440.02,80.739,673.451,138.1
		C1146.57,843.136,1263.47,873.646,1305.85,884.796z"/>
	<path style="opacity:0.67;clip-path:url(#SVGID_00000124149673282268687630000009016329806129903290_);fill:#89AA55;" d="
		M1215.98,889.306H25.85V665.316c20.14,7.319,42.97,12.069,68.35,12.069c111.8,0.03,227.8,25.851,261.8,26.94s53.88,18.91,167.94,29
		c114.06,10.09,200.041,16.09,228.05,24.09c28.01,8,114.71,44,153.359,58c13.98,5.06,49.34,16.13,92.08,28.19
		c10.631,3.01,21.71,6.069,33.04,9.119C1099.53,871.296,1177.59,889.296,1215.98,889.306z"/>
	<path style="clip-path:url(#SVGID_00000124149673282268687630000009016329806129903290_);fill:#DDF9A7;" d="M1150.96,716.366
		c0,0,68.72-17.45,154.89-38.981v211.92H751.99c26.42-6.08,49.19-10.569,63.88-11.97c36.67-3.49,121.12-38.49,189.44-68.92
		c49.06-21.85,89.81-41.33,98.59-45.09C1124.9,754.326,1150.96,716.366,1150.96,716.366z"/>
	<path style="clip-path:url(#SVGID_00000124149673282268687630000009016329806129903290_);fill:#BAD188;" d="M1305.85,700.236
		v189.069H884.4c31.16-17.77,64.109-33.55,91.6-39.89c7.33-1.69,14.481-3.65,21.43-5.81c66.96-20.801,114.57-60.261,114.57-60.261
		s67.64-47.93,78.82-47.93C1196.42,735.416,1251.88,717.806,1305.85,700.236z"/>
	<path style="clip-path:url(#SVGID_00000124149673282268687630000009016329806129903290_);fill:#95A568;" d="M1305.85,797.696
		v91.609H917.14c19.12-14.34,35.4-23.89,44.86-23.89c15.64,0,41.01-5.13,68.47-12.69c21.495-5.918,44.268-13.327,64.655-20.93
		c0.573-0.214,12.875-27.047,12.875-27.047l-9.025,25.598c0,0,0.842-0.338,2.293-0.927c0.296-0.12,31.055-51.969,31.399-52.109
		c0.202-0.082-25.62,50.77-25.402,50.682c8.288-3.374,23.211-10.554,31.455-14.716c2.368-1.196,40.351-66.523,40.351-66.523
		l-34.82,65.288l1.934-0.538l39.898-54.587l-37.957,54.375C1148.125,811.291,1259.381,798.746,1305.85,797.696z"/>
	<polygon style="opacity:0.36;clip-path:url(#SVGID_00000124149673282268687630000009016329806129903290_);fill:#6B8744;" points="
		890.25,666.999 748.667,677.386 834.667,677.386 759.333,681.696 839.333,681.696 799.32,687.644 871.333,685.416 947.333,651.416 
			"/>
	<path style="clip-path:url(#SVGID_00000124149673282268687630000009016329806129903290_);fill:#7B9B49;" d="M1134.95,889.306H25.85
		v-147.89v-70.39c98.4,19,318.13,61.409,379.24,72.939c20.684,3.903,46.548,7.281,73.496,10.143
		c1.432,0.152-74.585,22.308-74.585,22.308s81.759-21.56,83.196-21.414c10.726,1.088,42.901,3.966,32.227,3.023
		C512.207,757.387,380,783.346,380,783.346s146.816-24.69,148.248-24.569c3.607,0.301,7.188,0.594,10.734,0.876
		c1.19,0.095-112.542,15.903-112.542,15.903s135.606-14.158,137.09-14.044c51.537,3.974,77.041,4.694,77.041,4.694l25.28,2.751
		L435.5,813.916l238.121-44.113l7.852,0.855L560,802.916l129.981-31.333l7.573,0.824L642,797.916l63.129-24.685l6.37,0.693
		L580.4,832.916l137.523-58.292l24.647,2.682L1134.95,889.306z"/>
	<path style="opacity:0.29;clip-path:url(#SVGID_00000124149673282268687630000009016329806129903290_);fill:#FFFFFF;" d="
		M1175.048,330.281c-5.526-12.903-27.649-0.304-27.649-0.304s16.828-1.189,12.268,11.714c-4.561,12.903-18.402,0-18.402,0
		s-22.996-21.505-45.265-20.801s-21.436,8.361-21.436,8.361s-11.666-14.442-32.066-15.823
		c-20.399-1.381-14.725,15.823-14.725,15.823s-6.646-11.216-31.903-15.823c-25.257-4.607-22.343,9.983-22.343,9.983l0,0
		c-9.134-4.264-19.064,1.122-22.257,10.606c-3.646-3.895-9.103-7.064-16.6-4.766c-8.198,2.513-9.229,7.353-8.372,11.365
		c-2.833-3.604-8.176-7.022-18.09-5.237c-6.484,1.168-9.556,3.415-10.804,5.852c-1.731-1.822-4.388-3.801-8.391-5.852
		c-16.515-8.463-24.285,19.215-5.292,28.611c18.994,9.395,38.319,0.282,69.405-1.577c31.085-1.859,35.942,7.236,62.197,17.69
		c26.255,10.455,45.63-6.153,75.762-17.69c30.131-11.537,55.098-7.517,60.344-6.665
		C1171.136,358.949,1180.575,343.184,1175.048,330.281z"/>
	<path style="opacity:0.29;clip-path:url(#SVGID_00000124149673282268687630000009016329806129903290_);fill:#FFFFFF;" d="
		M1267.027,250.263c-3.734-6.857-18.683-0.161-18.683-0.161s11.37-0.632,8.289,6.225c-3.082,6.858-12.435,0-12.435,0
		s-15.537-11.429-30.584-11.055c-15.047,0.374-14.483,4.443-14.483,4.443s-7.883-7.675-21.667-8.409
		c-13.784-0.734-9.949,8.409-9.949,8.409s-4.491-5.961-21.557-8.409c-17.065-2.448-15.097,5.306-15.097,5.306l0,0
		c-6.172-2.266-12.881,0.596-15.038,5.637c-2.465-2.07-6.151-3.754-11.217-2.533c-5.539,1.336-6.235,3.907-5.657,6.04
		c-1.913-1.916-5.523-3.732-12.223-2.783c-4.381,0.62-6.456,1.814-7.3,3.11c-1.17-0.968-2.965-2.02-5.67-3.11
		c-11.158-4.498-16.409,10.212-3.575,15.205c12.834,4.993,25.892,0.15,46.896-0.838c21.004-0.988,24.286,3.846,42.026,9.401
		c17.739,5.556,30.831-3.27,51.19-9.401c20.359-6.131,37.229-3.995,40.773-3.542C1264.383,265.498,1270.762,257.12,1267.027,250.263
		z"/>
	
		<rect x="252.5" y="654.414" style="clip-path:url(#SVGID_00000124149673282268687630000009016329806129903290_);fill:#33241A;" width="14.108" height="71.002"/>
	
		<rect x="178.711" y="669.291" style="clip-path:url(#SVGID_00000124149673282268687630000009016329806129903290_);fill:#33241A;" width="14.108" height="47.906"/>
	
		<rect x="381.06" y="689.915" style="clip-path:url(#SVGID_00000124149673282268687630000009016329806129903290_);fill:#33241A;" width="14.108" height="71.002"/>
	<path style="clip-path:url(#SVGID_00000124149673282268687630000009016329806129903290_);fill:#60936C;" d="M236.89,671.026
		l-57.64-1.36l-21.74-0.51l-23.12-0.54l5.38-40.65l26.41-34.79l10.1-13.319c-0.48,0.42-4.26,3.729-9.49,8.25
		c-7.06,6.1-16.74,14.44-24.52,20.92l12.05-91.051l21.33-33.14l-19.72,20.96l15.14-114.42l14.7-18.2l-13.76,11.12l10.69-80.82
		l12.1,82.09l2.83,19.22l0.01,0.04l3.83,26l-5.47-2.58l-7.28-3.44l-2.95-1.39l2.85,2.05l7.21,5.19l6.29,4.53l17.64,119.62
		l-31.19-19.42l-5.59-3.479l5.45,5.44l33.71,33.65L236.89,671.026z"/>
	<polygon style="opacity:0.56;clip-path:url(#SVGID_00000124149673282268687630000009016329806129903290_);fill:#3A3F26;" points="
		201.47,430.826 196,428.246 197.63,404.786 197.64,404.826 	"/>
	<polygon style="opacity:0.56;clip-path:url(#SVGID_00000124149673282268687630000009016329806129903290_);fill:#3A3F26;" points="
		219.76,554.806 188.57,535.386 195.83,430.656 202.12,435.186 	"/>
	<polygon style="opacity:0.56;clip-path:url(#SVGID_00000124149673282268687630000009016329806129903290_);fill:#3A3F26;" points="
		236.89,671.026 179.25,669.666 188.43,537.346 222.14,570.996 	"/>
	<path style="opacity:0.28;clip-path:url(#SVGID_00000124149673282268687630000009016329806129903290_);fill:#DDF9A7;" d="
		M139.77,627.966l26.41-34.79c-3.61,30.141-6.53,56.221-8.67,75.98l-23.12-0.54L139.77,627.966z"/>
	<path style="opacity:0.28;clip-path:url(#SVGID_00000124149673282268687630000009016329806129903290_);fill:#DDF9A7;" d="
		M194.8,385.566c-2.09,13.07-4.12,26.18-6.08,39.24c-0.04,0.22-0.07,0.44-0.1,0.66c-8.72,58.04-16.1,115.09-21.83,162.641
		c-7.06,6.1-16.74,14.44-24.52,20.92l12.05-91.051l21.33-33.14l-19.72,20.96l15.14-114.42l14.7-18.2l-13.76,11.12l10.69-80.82
		L194.8,385.566z"/>
	<path style="clip-path:url(#SVGID_00000124149673282268687630000009016329806129903290_);fill:#6B8744;" d="M319.93,653.046
		l-31.32,0.86l-15.14,0.42l-55.69,1.54l-26.49,0.74l10.43-59.37l26.6-35.931l20.57-27.79l-19.62,20.141L205,578.576l20.24-115.24
		c6.32-6.28,13.42-13.31,19.86-19.68c10.58-10.47,19.36-19.16,19.94-19.73l-19.13,14.79l-18.92,14.641l20.7-117.86l15.3-11.14
		l-14.44,6.25l15.46-88.04l7.76-44.15l8.1,76.47v0.02l11.61,109.55l-6.71-1.36l-6.73-1.37l6.85,3.41l7.03,3.49l10.25,96.75
		l-12.69-6.441l-18.64-9.449l18.92,17l13.84,12.439L319.93,653.046z"/>
	<path style="clip-path:url(#SVGID_00000124149673282268687630000009016329806129903290_);fill:#4B5E2A;" d="M273.47,654.326
		l-55.69,1.54l-26.49,0.74l10.43-59.37l26.6-35.931l20.57-27.79l-19.62,20.141L205,578.576l20.24-115.24
		c6.32-6.28,13.42-13.31,19.86-19.68c10.58-10.47,19.36-19.16,19.94-19.73l-19.13,14.79l-18.92,14.641l20.7-117.86l15.3-11.14
		l-14.44,6.25l15.46-88.04C268.18,363.756,272.81,565.606,273.47,654.326z"/>
	<path style="clip-path:url(#SVGID_00000124149673282268687630000009016329806129903290_);fill:#BAD188;" d="M291.48,384.456
		l-6.71-1.36c-5.75-99.42-13-184.68-13-184.68l8.1,76.47v0.02L291.48,384.456z"/>
	<path style="clip-path:url(#SVGID_00000124149673282268687630000009016329806129903290_);fill:#BAD188;" d="M289.48,478.935
		c-1.21-31.18-2.83-63.14-4.59-93.799l7.03,3.49l10.25,96.75L289.48,478.935z"/>
	<path style="clip-path:url(#SVGID_00000124149673282268687630000009016329806129903290_);fill:#BAD188;" d="M319.93,653.046
		l-31.32,0.86c4.12-37.26,3.63-100.11,1.15-167.42l13.84,12.439L319.93,653.046z"/>
	<path style="clip-path:url(#SVGID_00000124149673282268687630000009016329806129903290_);fill:#6B8744;" d="M439.49,704.326
		l-21.89-0.87l-80.86-3.22l5.38-40.65l36.54-48.14c-0.62,0.54-20.31,17.75-34.04,29.2l12.05-91.051l21.33-33.14l-19.72,20.95
		l15.14-114.41l4.87-6.03l9.82-12.18l-10.63,8.6l-3.13,2.53l1.37-10.33l9.33-70.49l18.77,127.35l-15.71-7.41l16.36,11.77
		l17.63,119.62l-13.08-8.14l-23.69-14.76l25.17,25.13l13.99,13.96L439.49,704.326z"/>
	<path style="clip-path:url(#SVGID_00000124149673282268687630000009016329806129903290_);fill:#BAD188;" d="M422.1,586.426
		l-13.08-8.14c-7.68-52.37-19.17-109.55-30.73-161.32c-0.28-1.2-0.54-2.39-0.81-3.58c-0.59-2.62-1.18-5.22-1.76-7.8l9.33-70.49
		l18.77,127.35l-15.71-7.41l16.36,11.77L422.1,586.426z"/>
	<path style="clip-path:url(#SVGID_00000124149673282268687630000009016329806129903290_);fill:#BAD188;" d="M417.6,703.456
		c2.23-29.85-0.93-70.29-7.1-114.8l13.99,13.96l15,101.71L417.6,703.456z"/>
	
		<rect x="1101.548" y="560.583" style="clip-path:url(#SVGID_00000124149673282268687630000009016329806129903290_);fill:#42372D;" width="7.875" height="56.944"/>
	<path style="clip-path:url(#SVGID_00000124149673282268687630000009016329806129903290_);fill:#6B8744;" d="M1142.14,563.526
		l-36.659,3.479l-36.65,3.47c0.28-7.06,0.53-14.329,0.77-21.739l35.881-22.09l-35.65,14.529c0.47-16.41,0.84-33.46,1.12-50.59
		c0.02-1.17,0.04-2.35,0.06-3.52l0.551-0.67l33.909-41.61c-0.51,0.33-15.78,10.229-30.76,18.71c-1.14,0.64-2.271,1.28-3.399,1.9
		c0.379-31.99,0.489-63.311,0.489-90.32l10.46-19.2l2.29-4.2l-2.439,2.4l-10.32,10.12c-0.07-42.38-0.42-71.71-0.42-71.71
		s0,0.01,0.01,0.02c0,0,0,0.01,0.01,0.02v0.01c23.57,37.39,39.28,81.68,49.78,123.51l-17.58,0.76l-1.41,0.06l-7.06,0.3l7.819,3.83
		l1.511,0.74l20.45,10c7.069,31.49,11.26,60.831,13.729,83.8l-25.819-7.97l-0.48-0.15l-6.85-2.12l6.819,5.63l0.57,0.47l27.53,22.711
		C1141.92,552.416,1142.14,563.526,1142.14,563.526z"/>
	<path style="clip-path:url(#SVGID_00000124149673282268687630000009016329806129903290_);fill:#4B5E2A;" d="M1140.4,534.106
		l-28.101-23.181l-6.819-5.63l33.149,10.24c-2.47-22.97-6.66-52.31-13.729-83.8l-21.961-10.74l-7.819-3.83l8.47-0.361l17.58-0.759
		c-10.5-41.84-26.22-86.15-49.79-123.54c0.008,0.025,0.022,0.071,0.041,0.131c-0.003-0.009-0.008-0.023-0.011-0.031
		c0.51,1.82,7.93,28.81,10.7,61.47l2.439-2.4l-2.29,4.2c0.721,9.1,1.061,18.6,0.79,28.1c-0.479,16.74-4.03,47.39-8.34,79.52
		c14.979-8.48,30.25-18.38,30.76-18.71l-33.909,41.61c-0.211,1.399-0.4,2.8-0.61,4.189c-0.28,17.13-0.65,34.18-1.12,50.59
		l35.65-14.529l-35.881,22.09c-0.239,7.41-0.489,14.68-0.77,21.739l36.65-3.47l36.659-3.479
		C1142.14,563.526,1141.92,552.416,1140.4,534.106z"/>
	<polygon style="opacity:0.15;clip-path:url(#SVGID_00000124149673282268687630000009016329806129903290_);fill:#46542D;" points="
		20.791,760.917 178.711,717.197 192.819,717.197 23.159,827.416 	"/>
	<polygon style="opacity:0.15;clip-path:url(#SVGID_00000124149673282268687630000009016329806129903290_);fill:#46542D;" points="
		23.159,827.416 252.5,725.416 266.608,725.416 25.854,889.306 	"/>
	<polygon style="opacity:0.15;clip-path:url(#SVGID_00000124149673282268687630000009016329806129903290_);fill:#46542D;" points="
		94.203,889.306 381.06,760.917 395.168,760.917 185.766,889.306 	"/>
	<polygon style="opacity:0.15;clip-path:url(#SVGID_00000124149673282268687630000009016329806129903290_);fill:#46542D;" points="
		1101.548,617.527 1263.346,687.644 1305.85,677.386 1109.423,617.527 	"/>
	<g style="clip-path:url(#SVGID_00000124149673282268687630000009016329806129903290_);">
		<path style="fill:#46542D;" d="M1288.703,857.327c1.354-10.337,3.236-23.985,3.236-23.985l-6.346,23.985h-12.554
			c-0.746-2.451-1.512-4.962-2.282-7.479l5.477-63.114l-1.796,11.41c0.148-47.059-14.717-79.051-14.925-79.488
			c-0.237-0.499-0.833-0.71-1.333-0.474c-0.499,0.237-0.711,0.834-0.474,1.333c0.231,0.485,18.64,40.134,13.986,96.067
			l-3.884,24.673c-4.041-13.073-7.586-24.196-8.078-24.629l7.509,28.246l-0.497,3.159c-0.771,3.307-1.626,6.647-2.582,10.022
			c-0.026,0.092-0.021,0.182-0.021,0.272h-5.193c-3.854-33.743-19.018-57.738-31.53-72.251
			c-14.551-16.876-28.785-24.952-28.927-25.031c-0.486-0.273-1.093-0.1-1.361,0.383c-0.271,0.482-0.099,1.092,0.383,1.361
			c0.537,0.301,51.814,29.779,59.421,95.538h-15.959l-0.886-2.124l11.752-17.275l-12.062,16.532l-6.961-16.703l4.374-13.915
			l-5.356,11.559l-3.369-8.082l1.907-7.739l-9.772,31.085l-3.661-9.409l-8.998-23.299l7.556,23.635l3.812,11.813l0.22,0.674
			l-1.021,3.25h-1.22l-13.663-42.465l9.486,38.93l-3.623-5.275l-1.546-7.084l1.185,6.559l-16.423-23.911
			c0,0,0.088,0.175,0.249,0.496c3.43,6.939,7.063,13.835,11.013,20.65c2.034,3.486,4.146,6.953,6.501,10.354
			c0.012,0.015,0.022,0.03,0.033,0.046l0.29,1.7h-19.1l-0.201-6.512l3.778-9.735l-3.833,7.947l-0.213-6.899l5.809-8.543
			l-5.831,7.813l-0.757-24.593l-0.822,26.71l-8.948,11.992l-4.471-29.191v31.011h-9.991l15.647-50.115l-17.815,48.694
			l-10.477-12.283l13.043-25.246l-13.646,24.54l-6.813-7.988c0,0,0.087,0.141,0.249,0.399c1.854,3.021,3.773,6.031,5.765,9.026
			l-5.676,10.209l-13.592-19.79c1.518-2.622,3.007-5.25,4.453-7.889c0.171-0.307,0.264-0.475,0.264-0.475l-5.468,7.27l-3.815-5.554
			c0,0,0.088,0.175,0.249,0.496c0.968,1.959,1.957,3.913,2.96,5.863l-2.354,3.13l-7.434-12.768l1.094-3.306l-0.466-0.066
			l0.469,0.054l-0.465-0.066l-0.996,2.761l-4.318-7.417l4.192,7.768l-6.538,18.132l-12.671-35.693l11.601,38.66l-4.203,11.655
			h-2.788l0.606-29.335l-4.714,29.335h-2.11l-6.711-10.259l-0.488-29.691l-1.537,26.595l-1.474-2.253l-2.29-4.555l1.09,2.721
			l-2.756-4.213l3.272,5.502l2.026,5.06l-0.642,11.094h-11.35l-0.608-1.522l2.319-12.477l-2.597,11.783l-1.485-3.715l1.561-8.394
			l-1.747,7.928l-2.119-5.299l0.28-1.507l0.001-0.002l0,0l-0.314,1.426l-2.364-5.912l2.003,7.552l-2.234,10.139h-4.993
			l12.843-44.188l-16.654,44.188l0,0l0.078-0.243l4.078-12.891l8.09-25.795l-9.524,25.406l-3.874,10.26l-7.622-28.744l0.503-1.479
			l-0.577,1.198l-1.371-5.168l1.146,5.632l-4.175,8.66l-3.804-9.512l3.039-10.459l-10.83,28.736l-0.668-0.869l7.09-22.606
			l-8.021,21.396l-5.59-7.266l5.457,7.619l-1.37,3.656l-3.875,10.26l-7.622-28.744l0.503-1.479l-0.577,1.197l-1.37-5.167
			l1.147,5.632l-8.36,17.34l-0.395-2.096l9.032-28.665c-0.542,0.421-4.918,12.222-9.659,25.335l-6.319-33.56l3.733,40.739
			c-0.268,0.747-0.535,1.491-0.801,2.232l-9.052-11.766l-3.286-8.219l7.802,29.426h-7.417l-7.57-28.426
			c0,0,2.543,19.842,3.503,28.426h-7.082l-2.609-17.455l8.092-25.679c-0.502,0.39-4.275,10.493-8.587,22.372l-2.341-15.656
			l9.024-19.801l-9.177,18.777l-4.823-32.259l2.654,36.697l-10.883,22.269l-5.556-7.596l5.303,8.113l-2.341,4.791l-5.845-21.945
			c0,0,2.295,17.898,3.348,27.054l-0.155,0.317h-8.259l7.949-56.219l-12.416,56.219h-5.401l8.932-33.485l-11.266,31.764
			l-7.881-19.707l5.682,21.429h-6.317l-6.945-22.19l5.563,22.19h-2.55l-6.563-16.57l5.496,16.57h-1.274l-1.107-1.129l-5.236-17.357
			l3.449,15.536l-5.516-5.621l-6.304-34.944l3.468,32.055l-6.347-6.468l6.43,7.241l1.156,10.688H902.3l-5.102-45.771l3.867,45.771
			h-7.761l-2.181-23.008l0.882,23.008H867.83L861,822.416l3.602,34.911h-13.294l-5.354-16.078l4.734,16.078h-13.095
			c-0.055-2.43-0.159-4.852-0.298-7.269c-0.324-5.478-0.769-10.94-1.296-16.395c0.194,5.475,0.307,10.952,0.296,16.423
			c-0.008,2.418-0.051,4.833-0.144,7.241H545.959l0.982-3.423l4.104-13.519l-4.934,13.457l-1.219,3.485h-0.641l-0.156-0.858
			l-2.282-13.801l1.482,13.988l0.081,0.671h-6.845l-1.052-5.802l-2.282-13.801l1.481,13.988l0.682,5.614h-11.458l0.203-0.707
			l4.104-13.521l-4.933,13.457l-0.27,0.771h-0.472l4.9-15.59l-7.224,15.59h-2.826l-0.016-0.089l-0.658-3.379l-1.403-6.739
			l-2.937-13.457l0,0v0.002l2.442,13.519l1.156,6.766l0.532,3.378h-31.329L506,822.416l-22.698,34.911h-16.462l6.766-21.522
			l-9.974,21.522h-3.198l6.354-25.785l-8.106,25.785h-3.729l-1.6-4.11l-8.998-23.299l7.556,23.636l1.218,3.773h-5.184l-0.896-4.305
			l-2.936-13.457v0.001v0.001l2.442,13.518l0.725,4.241h-11.619l6.445-20.501l-9.5,20.501h-3.42l6.102-24.763l-7.785,24.763h-4.448
			l-1.117-2.87l5.542-17.631l-6.737,14.539l-2.877-7.451l2.796-11.35l-3.222,10.248l-4.585-11.872l4.193,13.117l-3.809,12.119
			l-0.384-1.759l0.342,1.892l-0.32,1.018h-4.448l-0.266-0.683l-6.414-26.833c0,0,1.517,8.725,3.017,18.054l-4.792-12.407
			l1.775-5.646l-2.157,4.656l-1.362-3.527l1.223,3.827l-10.454,22.56h-1.897l7.829-31.777l-9.772,31.084l-1.796-4.615l-2.304-52.102
			v46.174l-8.56-22.164l7.556,23.636l1.003,3.11v6.655h-3.427l-0.135-0.759l-0.658-3.379l-1.403-6.74l-2.936-13.457l2.442,13.521
			l1.156,6.766l0.533,3.385l0.094,0.664h-20.319l-0.39-9.577l5.572-8.195l-5.6,7.505L355,822.775l-1.102,27.085l-5.572,7.467h-3.733
			l-3.835-25.041v25.041h-7.949l-12.648-43.614l-0.467,0.07l7.98,43.544h-23.93l7.921-41.244L301.57,857.03l-9.443-16.218
			c3.45-6.979,6.695-14.019,9.779-21.107c0.171-0.387,0.264-0.598,0.264-0.598l-11.484,19.227l-9.06-15.56l8.712,16.143
			l-7.649,12.807l-16.08-57.048l14.302,60.024l-0.673,1.127l-17.571-33.413l15.951,34.911h-8.334
			C265.767,846.326,257,822.416,257,822.416l10.675,34.911h-8.04l-7.135-14.193l5.685,14.193h-23.669l-0.387-1.374l0.142-1.01
			l10.414-35.835l-8.57,22.739l5.693-40.414l-9.036,49.282l-0.069,0.184l-13.912-49.356l12.594,52.855l-1.104,2.929h-19.886
			l9.364-27.516l-12.041,24.977L196,839.555l11.393,15.908l-0.899,1.864h-24.141l-1.875-12.54l8.092-25.679
			c-0.501,0.39-4.275,10.493-8.586,22.372l-7.317-48.939l4.17,57.653c-0.863,2.402-1.722,4.799-2.556,7.132H161.98L156,834.871
			c0,0,1.66,12.951,2.804,22.456h-5.917l-4.888-32.693L156,807.079l-8.136,16.648l-3.972-26.564l2.186,30.219l-12.306,25.181
			l-5.556-7.595l5.302,8.112l-2.075,4.247h-10.332l7.105-50.248l-11.098,50.248h-5.128l7.339-27.516l-9.759,27.516h-9.72
			l-5.648-34.552l1.741,34.552H76.459l13.007-38.219l-17.184,38.219h-5.091c1.481-8.295,2.975-16.589,4.504-24.877
			c1.233-6.677,2.485-13.35,3.785-20.017l1.245-6.182l3.268-13.71c-0.063,0.066-0.142,0.209-0.234,0.422
			c-0.329,0.637-0.536,1.313-0.791,1.971l-0.813,2.447c-0.528,1.635-1.025,3.275-1.52,4.916l-2.873,9.864
			c-1.875,6.582-3.701,13.174-5.509,19.768c-1.679,6.13-3.339,12.262-4.99,18.396l0.153-57.785l-6.595,64.785h-7.162
			c0.811-4.48,1.619-8.962,2.445-13.44c1.233-6.676,2.485-13.35,3.785-20.017l1.245-6.181l3.268-13.711
			c-0.063,0.066-0.142,0.209-0.234,0.422c-0.329,0.637-0.536,1.313-0.791,1.971l-0.813,2.447c-0.528,1.635-1.025,3.275-1.52,4.917
			l-2.874,9.863c-1.875,6.583-3.701,13.174-5.508,19.769c-1.274,4.65-2.52,9.307-3.775,13.96h-2.786v-85.021l-5.561,85.021h-1.412
			l-16.708-61.146l8.354,61.146h-0.923v34.19h896.553l0.27,2.499l1.187-2.499h382.108v-34.19H1288.703z M133.1,857.327l1.313-2.879
			l1.882,2.879H133.1z M137.257,857.327l-2.561-3.501l11.474-25.177l2.074,28.678H137.257z M176.527,857.327l0.672-2.133
			l0.154,2.133H176.527z M283.936,856.153c2.291-3.854,4.383-7.778,6.397-11.726c0.484-0.955,0.95-1.917,1.426-2.874l8.513,15.773
			h-16.005L283.936,856.153z M353.595,857.327h-4.09l4.35-6.398L353.595,857.327z M399.826,835.932l5.96,18.645l0.068,0.209
			c0.132,0.863,0.26,1.711,0.383,2.542h-5.904v-8.578c0,0-0.181,4.702-0.409,8.578H393.1L399.826,835.932z M417.98,857.327h-3.42
			l2.93-11.889l2.449,7.661L417.98,857.327z M421.036,857.327l0.13-0.413l0.133,0.413H421.036z M921.852,857.327l-1.324-7.338
			l5.76,6.485l0.19,0.852H921.852z M968.063,857.327l-0.828-3.106l2.617-5.743l5.784,8.85H968.063z M977.065,857.327l-6.928-9.472
			l10.063-22.082l1.411,19.507c-1.484,4.132-2.955,8.246-4.31,12.047H977.065z M979.752,857.327l2.221-7.048l0.51,7.048H979.752z
			 M1008.912,853.624l-6.9-17.256l8.718,12.173C1010.111,850.264,1009.504,851.966,1008.912,853.624z M1018.227,857.327l-0.432-0.56
			l-1.463-7.77l7.488-22.004l6.175,30.334H1018.227z M1033.14,857.327l3.821-12.079l0.862-2.75l0.635,0.886l-5.255,13.943H1033.14z
			 M1039.057,857.327h-2.134l3.326-11.443l2.585,3.609L1039.057,857.327z M1040.428,845.268l5.978-20.566l2.974,11.215
			l-5.106,10.593l0.247-1.331l-0.332,1.506l-1.028,2.135L1040.428,845.268z M1043.805,857.327l1.494-4.392l3.146,4.392H1043.805z
			 M1049.705,857.327l-4.091-5.317l4.515-13.267l4.928,18.584H1049.705z M1059.486,857.327l-8.472-21.185l3.473-10.204l6.39,31.39
			H1059.486z M1072.731,857.327l1.841-9.904l1.762,6.642l-0.72,3.263H1072.731z M1076.108,857.327l0.449-2.418l0.641,2.418H1076.108
			z M1093.898,857.327l-0.091-5.515l2.209,5.515H1093.898z M1098.076,857.327l-4.319-8.592l-0.008-0.495l5.404,9.087H1098.076z
			 M1114.354,857.327h-3.351l3.221-9.737l2.126,7.084L1114.354,857.327z M1115.3,844.34l6.317-19.1l7.049,13.061l-10.537,14.009
			L1115.3,844.34z M1119.91,857.327l-0.533-1.501c2.291-3.062,4.383-6.177,6.397-9.312c1.34-2.099,2.636-4.208,3.914-6.321
			l9.247,17.134H1119.91z M1140.66,857.327l-10.467-17.976c0.694-1.158,1.387-2.317,2.065-3.479c2.333,4.493,4.759,8.965,7.33,13.4
			c1.578,2.705,3.217,5.395,4.967,8.055H1140.66z M1148.384,857.327l-1.085-1.579l5.441-10.534c1.513,2.256,3.058,4.506,4.668,6.742
			c1.307,1.803,2.674,3.592,4.091,5.371H1148.384z M1189.192,857.327h-0.232l0.253-0.649L1189.192,857.327z M1189.313,853.421
			l-1.884,3.906h-6.48l-0.012-0.075l8.65-12.722L1189.313,853.421z M1211.385,857.327l-0.133-0.637
			c0.153,0.214,0.317,0.424,0.474,0.637H1211.385z M1221.897,853.976l6.545-26.565l2.723,9.433l-8.655,18.678L1221.897,853.976z
			 M1226.664,857.327l5.429-17.269l4.985,17.269H1226.664z M1270.109,857.327l0.174-2.007l0.533,2.007H1270.109z"/>
		<g>
			<path style="fill:#46542D;" d="M1258.319,682.976c-3.499,2.505-6.053,10.33-6.053,19.601c0,9.271,2.554,17.095,6.052,19.601
				c3.836-2.506,6.635-10.33,6.635-19.601C1264.953,693.306,1262.154,685.481,1258.319,682.976z"/>
			<path style="fill:#46542D;" d="M1229.448,706.111c0.144,4.085,4.665,9.522,11.492,13.321c6.828,3.799,13.832,4.774,17.378,2.744
				c0.021-4.379-4.382-10.031-11.209-13.83C1240.281,704.548,1233.158,703.787,1229.448,706.111z"/>
			<path style="fill:#46542D;" d="M1286.165,704.394c-3.663-1.813-10.596-0.415-17.181,3.79
				c-6.585,4.205-10.769,9.906-10.666,13.992c3.844,2.096,10.909,0.905,17.494-3.3
				C1282.397,714.672,1286.449,708.764,1286.165,704.394z"/>
			<path style="fill:#46542D;" d="M1276.156,805.101c-3.419,0.873-7.698,6.092-10.457,13.175s-3.137,13.821-1.209,16.776
				c3.676-0.772,8.144-5.918,10.902-13.001S1278.341,808.156,1276.156,805.101z"/>
			<path style="fill:#46542D;" d="M1247.213,814.187c-1.105,3.163,0.73,8.663,4.816,13.598c4.086,4.935,9.147,7.764,12.461,7.268
				c1.318-3.339-0.363-8.968-4.449-13.902C1255.955,816.215,1250.739,813.514,1247.213,814.187z"/>
			<path style="fill:#46542D;" d="M1291.058,829.752c-2.259-2.475-7.972-3.47-14.255-2.217c-6.282,1.254-11.176,4.364-12.313,7.517
				c2.313,2.745,8.065,3.938,14.348,2.685C1285.121,836.483,1289.975,833.175,1291.058,829.752z"/>
			<path style="fill:#46542D;" d="M1184.767,738.746c-1.123,3.046,0.597,9.011,4.521,14.797c3.925,5.785,8.831,9.588,12.076,9.671
				c1.333-3.188-0.233-9.257-4.158-15.043S1188.221,738.687,1184.767,738.746z"/>
			<path style="fill:#46542D;" d="M1176.543,765.41c1.818,2.488,6.943,3.969,12.813,3.449c5.87-0.52,10.654-2.877,12.009-5.645
				c-1.842-2.741-6.982-4.405-12.853-3.886C1182.643,759.848,1177.874,762.389,1176.543,765.41z"/>
			<path style="fill:#46542D;" d="M1211.215,740.325c-3.053,0.42-6.788,4.227-9.118,9.64c-2.329,5.413-2.527,10.742-0.732,13.249
				c3.286-0.319,7.191-4.054,9.521-9.466C1213.215,748.335,1213.243,742.932,1211.215,740.325z"/>
			<path style="fill:#46542D;" d="M1193.13,779.729c1.818,2.487,6.942,3.968,12.813,3.448c5.87-0.519,10.655-2.877,12.009-5.645
				c-1.842-2.741-6.982-4.405-12.852-3.886C1199.229,774.166,1194.461,776.707,1193.13,779.729z"/>
			<path style="fill:#46542D;" d="M1227.803,754.643c-3.054,0.42-6.789,4.228-9.119,9.64c-2.329,5.413-2.527,10.743-0.732,13.249
				c3.286-0.319,7.191-4.053,9.521-9.466S1229.83,757.25,1227.803,754.643z"/>
			<path style="fill:#46542D;" d="M1206.426,794.048c1.819,2.488,6.943,3.968,12.813,3.448c5.87-0.52,10.655-2.877,12.009-5.646
				c-1.842-2.741-6.981-4.405-12.852-3.886C1212.525,788.484,1207.757,791.025,1206.426,794.048z"/>
			<path style="fill:#46542D;" d="M1241.099,768.963c-3.054,0.419-6.789,4.227-9.118,9.639c-2.33,5.413-2.527,10.743-0.733,13.249
				c3.286-0.319,7.192-4.053,9.521-9.466C1243.099,776.972,1243.126,771.568,1241.099,768.963z"/>
			<g>
				<path style="fill:#46542D;" d="M1279.764,793.529c-1.508,2.254-1.908,6.949-0.826,11.664c1.081,4.716,3.307,7.979,5.398,8.274
					c1.681-2.35,2.208-7.113,1.127-11.828C1284.381,796.925,1282.029,793.729,1279.764,793.529z"/>
				<path style="fill:#46542D;" d="M1301.463,814.788c-0.666-2.408-3.772-4.368-7.822-4.68c-4.051-0.313-7.781,1.12-9.305,3.359
					c0.625,2.631,3.701,4.754,7.752,5.065C1296.138,818.846,1299.899,817.251,1301.463,814.788z"/>
			</g>
			<g>
				<path style="fill:#46542D;" d="M1289.264,786.195c-1.508,2.255-1.908,6.95-0.826,11.665c1.081,4.715,3.307,7.979,5.398,8.273
					c1.681-2.349,2.208-7.112,1.127-11.827C1293.881,789.591,1291.529,786.396,1289.264,786.195z"/>
				<path style="fill:#46542D;" d="M1310.963,807.454c-0.666-2.407-3.772-4.367-7.822-4.68c-4.051-0.312-7.781,1.12-9.305,3.359
					c0.625,2.632,3.701,4.754,7.752,5.066C1305.638,811.513,1309.399,809.917,1310.963,807.454z"/>
			</g>
			<g>
				<path style="fill:#46542D;" d="M1300.832,777.543c-1.507,2.254-1.908,6.949-0.826,11.665c1.081,4.715,3.308,7.979,5.399,8.273
					c1.681-2.349,2.207-7.113,1.126-11.828C1305.45,780.938,1303.098,777.743,1300.832,777.543z"/>
				<path style="fill:#46542D;" d="M1322.532,798.802c-0.666-2.408-3.772-4.367-7.822-4.68c-4.051-0.313-7.782,1.12-9.305,3.359
					c0.625,2.631,3.701,4.754,7.751,5.066C1317.207,802.859,1320.968,801.265,1322.532,798.802z"/>
			</g>
			<path style="fill:#46542D;" d="M1242.159,727.68c0.121,4.084,3.925,9.521,9.67,13.32c5.745,3.8,11.639,4.774,14.623,2.744
				c0.017-4.378-3.688-10.03-9.433-13.83C1251.274,726.115,1245.281,725.354,1242.159,727.68z"/>
			<path style="fill:#46542D;" d="M1289.883,725.963c-3.082-1.813-8.915-0.415-14.456,3.79c-5.541,4.204-9.062,9.906-8.975,13.991
				c3.234,2.096,9.179,0.906,14.72-3.3C1286.713,736.239,1290.122,730.331,1289.883,725.963z"/>
			<path style="fill:#46542D;" d="M1248.302,751.815c0.288,3.489,3.976,8.294,9.353,11.784c5.377,3.491,10.765,4.58,13.383,2.979
				c-0.175-3.734-3.781-8.717-9.158-12.208C1256.502,750.88,1251.032,749.969,1248.302,751.815z"/>
			<path style="fill:#46542D;" d="M1251.435,782.521c-0.345,4.627,2.819,10.371,8.102,14.032c5.281,3.662,11.033,4.099,14.233,1.451
				c0.515-4.976-2.525-10.976-7.807-14.638C1260.681,779.705,1254.805,779.523,1251.435,782.521z"/>
			<path style="fill:#46542D;" d="M1295.125,743.791c-3.082-1.813-13.834,2.17-19.375,6.375c-5.541,4.205-5.385,11.06-5.298,15.146
				c3.234,2.097,9.179,0.906,14.72-3.299S1295.364,748.16,1295.125,743.791z"/>
			<path style="fill:#46542D;" d="M1298.523,777.165c-3.082-1.813-13.834,2.17-19.375,6.375c-5.541,4.205-5.385,11.061-5.298,15.146
				c3.234,2.097,9.179,0.906,14.72-3.299C1294.111,791.182,1298.763,781.534,1298.523,777.165z"/>
			<g>
				<path style="fill:#46542D;" d="M1256.933,858.327c-0.079,0-0.159-0.01-0.239-0.029c-0.536-0.131-0.864-0.673-0.733-1.209
					c0.072-0.294,7.474-29.59,30.463-47.036l22.973-17.434c0.44-0.335,1.066-0.246,1.401,0.192c0.334,0.439,0.248,1.067-0.192,1.401
					l-22.973,17.434c-22.412,17.008-29.658,45.632-29.729,45.919C1257.791,858.021,1257.382,858.327,1256.933,858.327z"/>
			</g>
		</g>
	</g>
</g>
</svg>
